<?xml version="1.0" encoding="UTF-8" standalone="no" ?>
<!DOCTYPE svg PUBLIC "-//W3C//DTD SVG 1.1//EN" "http://www.w3.org/Graphics/SVG/1.1/DTD/svg11.dtd">
<svg xmlns="http://www.w3.org/2000/svg" xmlns:xlink="http://www.w3.org/1999/xlink" version="1.1" width="640" height="640" viewBox="0 0 640 640" xml:space="preserve">
<desc>Created with Fabric.js 4.6.0</desc>
<defs>
</defs>
<g transform="matrix(1 0 0 1 25.89 21.89)" id="_gPz_528GfvU2l8oa-cVD"  >
<path id="pathId" style="stroke: none; stroke-width: 1; stroke-dasharray: none; stroke-linecap: butt; stroke-dashoffset: 0; stroke-linejoin: miter; stroke-miterlimit: 4; fill: rgb(0,0,0); fill-rule: nonzero; opacity: 1;" vector-effect="non-scaling-stroke"  transform=" translate(-0.5, -0.5)" d="M 0.06352 0 C 0.028739999999999995 0 0 0.02874 0 0.06352 L 0 0.93647 C 0 0.9712500000000001 0.02874 0.99999 0.06352 0.99999 L 0.93647 0.99999 C 0.9712500000000001 0.99999 0.99999 0.9713400000000001 0.99999 0.93647 L 0.99999 0.06352000000000002 C 0.99999 0.028740000000000022 0.9713400000000001 2.7755575615628914e-17 0.93647 2.7755575615628914e-17 z M 0.06352 0.04762 L 0.93647 0.04762 C 0.94531 0.04762 0.95237 0.05469 0.95237 0.06352000000000001 L 0.95237 0.93647 C 0.95237 0.94531 0.9453 0.95237 0.93647 0.95237 L 0.06352000000000002 0.95237 C 0.05468000000000002 0.95237 0.04762000000000002 0.9453 0.04762000000000002 0.93647 L 0.04762000000000002 0.06352000000000002 C 0.04762000000000002 0.05468000000000002 0.05469000000000002 0.04762000000000002 0.06352000000000002 0.04762000000000002 z M 0.45238 0.45238 L 0.45238 0.75177 C 0.45238 0.79771 0.43499 0.8095300000000001 0.40476 0.8095300000000001 C 0.37314 0.8095300000000001 0.35119 0.7898100000000001 0.33668 0.76424 L 0.26189999999999997 0.8095300000000001 C 0.28357 0.85538 0.33668 0.9047700000000001 0.4103399999999999 0.9047700000000001 C 0.4918099999999999 0.9047700000000001 0.54762 0.86143 0.54762 0.7662800000000001 L 0.54762 0.45238000000000006 z M 0.74888 0.45238 C 0.66778 0.45238 0.61579 0.5042800000000001 0.61579 0.57245 C 0.61579 0.64639 0.6594099999999999 0.68136 0.72498 0.70926 L 0.74767 0.71903 C 0.78906 0.73717 0.8095199999999999 0.74823 0.8095199999999999 0.7793899999999999 C 0.8095199999999999 0.80534 0.7898 0.8241299999999999 0.7521399999999999 0.8241299999999999 C 0.7073099999999999 0.8241299999999999 0.6861099999999999 0.7937199999999999 0.6666699999999999 0.7619099999999999 L 0.5952399999999999 0.8095299999999999 C 0.6219299999999999 0.8622599999999998 0.6698299999999999 0.9047699999999999 0.7541899999999999 0.9047699999999999 C 0.8404999999999999 0.9047699999999999 0.9047699999999999 0.8599399999999998 0.9047699999999999 0.7781899999999998 C 0.9047699999999999 0.7022999999999998 0.8612399999999999 0.6685399999999998 0.7839599999999999 0.6354299999999998 L 0.7612699999999999 0.6257599999999999 C 0.7222999999999999 0.6088299999999999 0.7053699999999999 0.5978599999999998 0.7053699999999999 0.5706099999999998 C 0.7053699999999999 0.5485699999999999 0.7222999999999999 0.5316399999999999 0.7488999999999999 0.5316399999999999 C 0.7750299999999999 0.5316399999999999 0.7917799999999999 0.5427099999999999 0.8073099999999999 0.5706099999999998 L 0.8780899999999998 0.5252199999999998 C 0.8482399999999998 0.4724899999999998 0.8066599999999998 0.4523999999999998 0.7488999999999998 0.4523999999999998 z" stroke-linecap="round" />
</g>
</svg>