<?xml version="1.0" encoding="UTF-8" standalone="no" ?>
<!DOCTYPE svg PUBLIC "-//W3C//DTD SVG 1.1//EN" "http://www.w3.org/Graphics/SVG/1.1/DTD/svg11.dtd">
<svg xmlns="http://www.w3.org/2000/svg" xmlns:xlink="http://www.w3.org/1999/xlink" version="1.1" width="500" height="500" viewBox="0 0 500 500" xml:space="preserve">
<desc>Created with Fabric.js 4.6.0</desc>
<defs>
</defs>
<g transform="matrix(1 0 0 1 32 32)" id="6D-K7GATOYsN7LtqbZSaB"  >
<path style="stroke: none; stroke-width: 1; stroke-dasharray: none; stroke-linecap: butt; stroke-dashoffset: 0; stroke-linejoin: miter; stroke-miterlimit: 4; fill: rgb(0,0,0); fill-rule: nonzero; opacity: 1;" vector-effect="non-scaling-stroke"  transform=" translate(-0.5, -0.5)" d="M 0.5 0 C 0.22387 0 0 0.22387 0 0.5 C 0 0.7361 0.16369 0.9338500000000001 0.38375 0.98627 C 0.37237 0.98356 0.36107999999999996 0.98052 0.35 0.9770599999999999 L 0.35 0.8624999999999999 C 0.35 0.8624999999999999 0.33125 0.8687499999999999 0.30624999999999997 0.8687499999999999 C 0.23630999999999996 0.8687499999999999 0.20724999999999996 0.8063499999999999 0.19999999999999996 0.7749999999999999 C 0.19559999999999997 0.7558999999999999 0.18409999999999996 0.7378099999999999 0.17174999999999996 0.7267499999999999 C 0.15699999999999997 0.7135999999999999 0.15009999999999996 0.7135599999999999 0.14999999999999997 0.7090599999999999 C 0.14980999999999997 0.6996199999999999 0.16264999999999996 0.7 0.16874999999999996 0.7 C 0.19999999999999996 0.7 0.22368999999999994 0.73325 0.23468999999999995 0.75044 C 0.26193999999999995 0.79288 0.29118999999999995 0.8 0.30624999999999997 0.8 C 0.32499999999999996 0.8 0.34119 0.7971900000000001 0.35234999999999994 0.79181 C 0.35749999999999993 0.7555000000000001 0.37365999999999994 0.72316 0.3999999999999999 0.7 C 0.28274999999999995 0.6765599999999999 0.1999999999999999 0.6093099999999999 0.1999999999999999 0.49999999999999994 C 0.1999999999999999 0.4436899999999999 0.2225999999999999 0.39193999999999996 0.26024999999999987 0.35014999999999996 C 0.25639999999999985 0.33924999999999994 0.24999999999999986 0.31718999999999997 0.24999999999999986 0.28124999999999994 C 0.24999999999999986 0.25749999999999995 0.2516499999999999 0.22834999999999994 0.26249999999999984 0.19999999999999996 C 0.26249999999999984 0.19999999999999996 0.33380999999999983 0.20049999999999996 0.40105999999999986 0.2641899999999999 C 0.4320999999999999 0.25514999999999993 0.4653099999999999 0.24999999999999992 0.4999999999999999 0.24999999999999992 C 0.5346899999999999 0.24999999999999992 0.5678999999999998 0.25514999999999993 0.5989399999999999 0.2641899999999999 C 0.66619 0.20049999999999993 0.7374999999999999 0.19999999999999993 0.7374999999999999 0.19999999999999993 C 0.7484 0.22834999999999994 0.7499999999999999 0.25749999999999995 0.7499999999999999 0.28124999999999994 C 0.7499999999999999 0.31999999999999995 0.7448499999999999 0.34259999999999996 0.7416899999999998 0.35234999999999994 C 0.7781899999999998 0.39374999999999993 0.7999999999999998 0.44469999999999993 0.7999999999999998 0.49999999999999994 C 0.7999999999999998 0.6093099999999999 0.7172499999999998 0.6765599999999999 0.5999999999999999 0.7 C 0.6313099999999998 0.7274999999999999 0.6499999999999999 0.7675599999999999 0.6499999999999999 0.8125 L 0.6499999999999999 0.97706 C 0.6389199999999999 0.9805400000000001 0.6276499999999999 0.98356 0.61625 0.9862700000000001 C 0.83631 0.9338500000000001 1 0.7361000000000001 1 0.5000000000000001 C 1 0.22387000000000012 0.77613 1.1102230246251565e-16 0.5 1.1102230246251565e-16 z M 0.53487 0.99865 C 0.52335 0.99946 0.51174 1 0.49999999999999994 1 C 0.5117299999999999 1 0.52333 0.99944 0.53487 0.99865 z M 0.61127 0.98742 C 0.58889 0.99252 0.56594 0.9960899999999999 0.54252 0.99807 C 0.56594 0.99609 0.58889 0.99249 0.61127 0.98742 z M 0.5 1 C 0.48827 1 0.47665 0.99946 0.46513 0.99865 C 0.47667 0.99944 0.48825999999999997 1 0.5 1 z M 0.45746 0.99808 C 0.43406 0.9961 0.41108999999999996 0.99252 0.38872999999999996 0.9874299999999999 C 0.41111 0.9925099999999999 0.43405999999999995 0.9960999999999999 0.45746 0.99808 z" stroke-linecap="round" />
</g>
</svg>