<?xml version="1.0" encoding="UTF-8" standalone="no" ?>
<!DOCTYPE svg PUBLIC "-//W3C//DTD SVG 1.1//EN" "http://www.w3.org/Graphics/SVG/1.1/DTD/svg11.dtd">
<svg xmlns="http://www.w3.org/2000/svg" xmlns:xlink="http://www.w3.org/1999/xlink" version="1.1" width="640" height="640" viewBox="0 0 640 640" xml:space="preserve">
<desc>Created with Fabric.js 4.6.0</desc>
<defs>
</defs>
<g transform="matrix(1 0 0 1 12.01 12.02)" id="-XAE6O0CvUUe69QN3OzdX"  >
<path style="stroke: none; stroke-width: 1; stroke-dasharray: none; stroke-linecap: butt; stroke-dashoffset: 0; stroke-linejoin: miter; stroke-miterlimit: 4; fill: rgb(0,0,0); fill-rule: nonzero; opacity: 1;" vector-effect="non-scaling-stroke"  transform=" translate(-0.5, -0.5)" d="M 0 0.68365 L 0 0.04652999999999996 C 0 0.02080999999999996 0.02081 -4.163336342344337e-17 0.04648 -4.163336342344337e-17 L 0.94756 -4.163336342344337e-17 C 0.97353 -4.163336342344337e-17 0.99417 0.020809999999999957 0.99417 0.04660999999999996 L 0.99417 0.66084 C 0.96629 0.64378 0.93341 0.6352099999999999 0.89608 0.6352099999999999 C 0.8439 0.6352099999999999 0.80432 0.64769 0.77731 0.6725 C 0.7502599999999999 0.69739 0.7369399999999999 0.72776 0.7369399999999999 0.76509 C 0.7369399999999999 0.8054600000000001 0.75067 0.83542 0.77855 0.85456 C 0.7947799999999999 0.86642 0.8247399999999999 0.87703 0.86761 0.88627 L 0.91131 0.8962600000000001 C 0.93753 0.9017900000000001 0.9558399999999999 0.9087400000000001 0.9679099999999999 0.9154000000000001 C 0.97956 0.9230200000000001 0.9857999999999999 0.9335900000000001 0.9857999999999999 0.9472400000000001 C 0.9857999999999999 0.97079 0.9737299999999999 0.9869800000000001 0.9495999999999999 0.9950100000000001 L 0.9483499999999999 0.99568 L 0.8563799999999999 0.99568 C 0.84444 0.9913500000000001 0.8351599999999999 0.98511 0.8276699999999999 0.97695 C 0.8201799999999999 0.96763 0.8151899999999999 0.95406 0.8126899999999999 0.93479 L 0.7302899999999999 0.93479 C 0.7302899999999999 0.95834 0.7345799999999999 0.97828 0.7440199999999999 0.99638 L 0.6741099999999999 0.99638 C 0.6820199999999998 0.9801500000000001 0.6865899999999999 0.96213 0.6865899999999999 0.94157 C 0.6865899999999999 0.90495 0.6741099999999999 0.87707 0.64972 0.85767 C 0.63416 0.84531 0.6105999999999999 0.8354100000000001 0.5794699999999999 0.8278300000000001 L 0.50789 0.8111 C 0.48041999999999996 0.80527 0.46252999999999994 0.79945 0.45378999999999997 0.79445 C 0.44088999999999995 0.78696 0.43465 0.77572 0.43465 0.76157 C 0.43465 0.74576 0.44131 0.73327 0.45421 0.72453 C 0.46794 0.71579 0.48542 0.71163 0.50789 0.71163 C 0.52828 0.71163 0.5445099999999999 0.71538 0.55824 0.72245 C 0.5788 0.7331000000000001 0.5894499999999999 0.75116 0.59112 0.7760100000000001 L 0.67435 0.7760100000000001 C 0.6731 0.7324800000000001 0.65708 0.6989000000000001 0.62649 0.6759700000000001 C 0.59553 0.6530800000000001 0.55887 0.6412200000000001 0.51538 0.6412200000000001 C 0.46314999999999995 0.6412200000000001 0.42404 0.6537000000000002 0.39664999999999995 0.6778400000000001 C 0.37001999999999996 0.7021000000000001 0.35627999999999993 0.7331900000000001 0.35627999999999993 0.7698100000000001 C 0.35627999999999993 0.8101800000000001 0.37000999999999995 0.8400600000000001 0.3978899999999999 0.85928 C 0.41461999999999993 0.8705200000000001 0.4444999999999999 0.88104 0.4873599999999999 0.8909100000000001 L 0.5308499999999999 0.9009000000000001 C 0.5562299999999999 0.9065200000000001 0.5749599999999999 0.9127600000000001 0.5874499999999999 0.9202500000000001 C 0.5991 0.9277400000000001 0.6053399999999999 0.9381400000000001 0.6053399999999999 0.9518800000000002 C 0.6053399999999999 0.9756000000000001 0.5928599999999998 0.9910000000000002 0.5687199999999999 0.9997400000000002 L 0.4754999999999999 0.9997400000000002 C 0.4636799999999999 0.9953300000000002 0.45385999999999993 0.9890900000000001 0.4467899999999999 0.9803900000000002 C 0.4392999999999999 0.9712300000000003 0.4338899999999999 0.9569200000000002 0.4313899999999999 0.9381900000000002 L 0.34744999999999987 0.9381900000000002 C 0.34744999999999987 0.9614100000000002 0.35181999999999986 0.9818900000000002 0.36076999999999987 0.9997800000000002 L 0.2737999999999999 0.9997800000000002 C 0.2875299999999999 0.9781400000000002 0.29680999999999985 0.9531700000000002 0.3013899999999999 0.9252900000000002 L 0.21595999999999987 0.9252900000000002 C 0.21012999999999987 0.9465100000000002 0.20297999999999988 0.9626600000000002 0.19410999999999987 0.9731500000000002 C 0.18328999999999987 0.9868800000000002 0.16913999999999987 0.9956200000000002 0.15165999999999985 0.9999900000000002 L 0.10059999999999986 0.9999900000000002 C 0.08186999999999986 0.9956200000000002 0.06576999999999986 0.9850900000000001 0.052739999999999856 0.9683600000000001 C 0.033429999999999856 0.9451400000000001 0.024109999999999857 0.9103500000000001 0.024109999999999857 0.8643200000000001 C 0.024109999999999857 0.81771 0.033679999999999856 0.78234 0.05157999999999986 0.7569500000000001 C 0.07030999999999986 0.7314400000000001 0.09443999999999986 0.7190800000000002 0.12606999999999985 0.7190800000000002 C 0.15727999999999986 0.7190800000000002 0.18016999999999986 0.7278200000000001 0.19639999999999985 0.7458800000000002 C 0.20513999999999985 0.7558700000000003 0.21262999999999985 0.7708500000000003 0.21803999999999985 0.7906600000000003 L 0.30459999999999987 0.7906600000000003 C 0.3033499999999999 0.7649400000000003 0.2937799999999999 0.7390600000000003 0.27604999999999985 0.7132600000000002 C 0.24391999999999986 0.6674800000000002 0.19306999999999985 0.6446000000000003 0.12356999999999985 0.6446000000000003 C 0.07529999999999984 0.6446000000000003 0.03475999999999985 0.6595800000000003 0.0024699999999998473 0.6887100000000003 L 0.0003899999999998475 0.6841300000000002 z M 0.99434 0.83496 L 0.99434 0.77029 L 0.97287 0.77029 C 0.97141 0.7454500000000001 0.96039 0.7277600000000001 0.9402900000000001 0.7172700000000001 C 0.9272600000000001 0.71045 0.9104500000000001 0.7069500000000001 0.8906400000000001 0.7069500000000001 C 0.8681700000000001 0.7069500000000001 0.8509000000000001 0.7115300000000001 0.8377900000000001 0.72035 C 0.8248100000000002 0.7293000000000001 0.8179000000000002 0.7419100000000001 0.8179000000000002 0.7578900000000001 C 0.8179000000000002 0.77266 0.8248100000000002 0.7836900000000001 0.8377500000000002 0.7909700000000001 C 0.8469100000000002 0.79534 0.8648000000000002 0.80154 0.8922700000000002 0.80778 L 0.9638500000000002 0.82484 C 0.9763300000000003 0.82734 0.9871500000000002 0.83108 0.9971400000000002 0.83441 L 0.9950600000000003 0.83566 z" stroke-linecap="round" />
</g>
</svg>