<?xml version="1.0" encoding="UTF-8" standalone="no" ?>
<!DOCTYPE svg PUBLIC "-//W3C//DTD SVG 1.1//EN" "http://www.w3.org/Graphics/SVG/1.1/DTD/svg11.dtd">
<svg xmlns="http://www.w3.org/2000/svg" xmlns:xlink="http://www.w3.org/1999/xlink" version="1.1" width="640" height="640" viewBox="0 0 640 640" xml:space="preserve">
<desc>Created with Fabric.js 4.6.0</desc>
<defs>
</defs>
<g transform="matrix(1 0 0 1 128 128)" id="BqUPk-Lt11Cu2sKrfGong"  >
<path style="stroke: none; stroke-width: 1; stroke-dasharray: none; stroke-linecap: butt; stroke-dashoffset: 0; stroke-linejoin: miter; stroke-miterlimit: 4; fill: rgb(0,0,0); fill-rule: nonzero; opacity: 1;" vector-effect="non-scaling-stroke"  transform=" translate(-0.34, -0.5)" d="M 0.57993 0.33961 C 0.6544 0.30254000000000003 0.69356 0.21910000000000002 0.6745 0.13815000000000002 C 0.65545 0.05718000000000002 0.58319 -0.00001999999999996449 0.50002 2.7755575615628914e-17 L 0.17927000000000004 2.7755575615628914e-17 C 0.09610000000000005 -0.000019999999999972246 0.023840000000000028 0.057190000000000026 0.004790000000000044 0.13815000000000002 C -0.014259999999999957 0.21912000000000004 0.024900000000000044 0.30254000000000003 0.09936000000000005 0.33961 C 0.03850000000000005 0.36989000000000005 0.00003000000000004388 0.43201 0.00003000000000004388 0.49999000000000005 C 0.00003000000000004388 0.56796 0.03850000000000004 0.6300800000000001 0.09936000000000005 0.6603600000000001 C 0.020280000000000048 0.69977 -0.01827999999999995 0.7909400000000001 0.008520000000000041 0.87514 C 0.03533000000000004 0.95933 0.11951000000000005 1.01142 0.20682000000000006 0.99785 C 0.29413000000000006 0.98428 0.35851000000000005 0.90909 0.35851000000000005 0.82074 L 0.35851000000000005 0.60981 C 0.40367000000000003 0.6680499999999999 0.47990000000000005 0.6926899999999999 0.55061 0.67191 C 0.62133 0.65113 0.6721 0.58918 0.6785800000000001 0.51576 C 0.6850600000000001 0.44235 0.64592 0.37245 0.5799500000000001 0.33960999999999997 z M 0.64152 0.17923 C 0.64143 0.25731 0.57818 0.3206 0.5001 0.32074 L 0.50001 0.32074 L 0.49982999999999994 0.32074 L 0.35849999999999993 0.32074 L 0.35849999999999993 0.03773000000000004 L 0.50001 0.03773000000000004 C 0.5781299999999999 0.03782000000000004 0.64143 0.10112000000000004 0.64152 0.17924000000000004 z M 0.39018 0.35847 C 0.37834 0.36768 0.3677 0.37832 0.35849000000000003 0.39016 L 0.35849000000000003 0.35847 z M 0.03775 0.17923 C 0.03784 0.1011 0.10114000000000001 0.03781000000000001 0.17926 0.037720000000000004 L 0.32077 0.037720000000000004 L 0.32077 0.32072999999999996 L 0.17926 0.32072999999999996 L 0.17917 0.32072999999999996 C 0.10107999999999999 0.32059 0.037839999999999985 0.2573 0.037750000000000006 0.17921999999999996 z M 0.17925 0.96223 C 0.12867 0.9622700000000001 0.08191 0.9353100000000001 0.056609999999999994 0.89151 C 0.03130999999999999 0.8477100000000001 0.03130999999999999 0.79374 0.056609999999999994 0.74995 C 0.08191 0.70615 0.12867 0.67919 0.17925 0.67923 L 0.32076 0.67923 L 0.32076 0.82074 C 0.32067 0.8988700000000001 0.25737 0.96216 0.17925 0.96225 z M 0.32076 0.64149 L 0.17925 0.64149 C 0.10111999999999999 0.64148 0.03778999999999999 0.57815 0.03777 0.50003 C 0.03775 0.42189999999999994 0.10104 0.35853999999999997 0.17917 0.35849 L 0.17926 0.35849 L 0.32077 0.35849 z M 0.50001 0.64149 C 0.42190999999999995 0.64147 0.3585999999999999 0.57817 0.3585499999999999 0.50007 C 0.35849999999999993 0.42196 0.42172999999999994 0.35860000000000003 0.49981999999999993 0.35847 L 0.49999999999999994 0.35847 L 0.5000899999999999 0.35847 C 0.57819 0.35857 0.6414399999999999 0.42192 0.6414199999999999 0.5000100000000001 C 0.6413999999999999 0.5781200000000001 0.5780999999999998 0.6414200000000001 0.4999999999999999 0.6414700000000001 z" stroke-linecap="round" />
</g>
</svg>