<?xml version="1.0" encoding="UTF-8" standalone="no" ?>
<!DOCTYPE svg PUBLIC "-//W3C//DTD SVG 1.1//EN" "http://www.w3.org/Graphics/SVG/1.1/DTD/svg11.dtd">
<svg xmlns="http://www.w3.org/2000/svg" xmlns:xlink="http://www.w3.org/1999/xlink" version="1.1" width="640" height="640" viewBox="0 0 640 640" xml:space="preserve">
<desc>Created with Fabric.js 4.6.0</desc>
<defs>
</defs>
<g transform="matrix(1 0 0 1 12 12)" id="ic5nq_cmRmzsRtIWs1_AK"  >
<path style="stroke: none; stroke-width: 1; stroke-dasharray: none; stroke-linecap: butt; stroke-dashoffset: 0; stroke-linejoin: miter; stroke-miterlimit: 4; fill: rgb(0,0,0); fill-rule: nonzero; opacity: 1;" vector-effect="non-scaling-stroke"  transform=" translate(-0.36, -0.5)" d="M 0.02396 0.65305 L 0.1225 0.019199999999999995 C 0.12396 0.009559999999999996 0.13144 0.0019499999999999934 0.14105 0.0003199999999999939 C 0.15066000000000002 -0.001310000000000006 0.16023 0.0034099999999999938 0.16479000000000002 0.012029999999999994 L 0.27075000000000005 0.21083 z M 0.72377 0.80684 L 0.62993 0.22353 C 0.62852 0.2152 0.62259 0.20834 0.61454 0.20575000000000002 C 0.60649 0.20316 0.59768 0.20528000000000002 0.59168 0.21123000000000003 L 0 0.80683 L 0.32738 0.9913400000000001 C 0.34791 1.0028800000000002 0.37297 1.0028800000000002 0.39351 0.9913400000000001 z M 0.45772 0.29783 L 0.38188 0.15274 C 0.37798 0.14529999999999998 0.37028 0.14064 0.36188 0.14064 C 0.35347999999999996 0.14064 0.34578 0.14529999999999998 0.34187999999999996 0.15274 L 0.008949999999999958 0.74934 z" stroke-linecap="round" />
</g>
</svg>