<?xml version="1.0" encoding="UTF-8" standalone="no" ?>
<!DOCTYPE svg PUBLIC "-//W3C//DTD SVG 1.1//EN" "http://www.w3.org/Graphics/SVG/1.1/DTD/svg11.dtd">
<svg xmlns="http://www.w3.org/2000/svg" xmlns:xlink="http://www.w3.org/1999/xlink" version="1.1" width="640" height="640" viewBox="0 0 640 640" xml:space="preserve">
<desc>Created with Fabric.js 4.6.0</desc>
<defs>
</defs>
<g transform="matrix(1 0 0 1 12 12)" id="ZBdAoo6oy0pCf2MOhgIa9"  >
<path style="stroke: none; stroke-width: 1; stroke-dasharray: none; stroke-linecap: butt; stroke-dashoffset: 0; stroke-linejoin: miter; stroke-miterlimit: 4; fill: rgb(0,0,0); fill-rule: nonzero; opacity: 1;" vector-effect="non-scaling-stroke"  transform=" translate(-0.5, -0.5)" d="M 0.70564 0.35328 C 0.7104 0.35567 0.7146800000000001 0.35891999999999996 0.7182700000000001 0.36285999999999996 L 0.81615 0.31931 L 0.7248100000000001 0.22884 L 0.70435 0.35192999999999997 z M 0.50254 0.27107 C 0.50729 0.27824 0.51028 0.28644 0.51125 0.29499 L 0.6569699999999999 0.35674999999999996 C 0.66138 0.35336999999999996 0.66641 0.35085999999999995 0.6717599999999999 0.34936999999999996 L 0.69568 0.20143999999999995 L 0.6069199999999999 0.10834999999999995 L 0.5025399999999999 0.26886 z M 0.99979 0.49988 L 0.84361 0.3437 L 0.73743 0.3872 L 0.9984500000000001 0.49812999999999996 C 0.9984500000000001 0.49812999999999996 1.00066 0.49987999999999994 0.9997800000000001 0.49987999999999994 z M 0.97367 0.52513 L 0.72311 0.41808 C 0.71606 0.42743000000000003 0.70555 0.43354 0.69394 0.43504 L 0.66698 0.59993 C 0.6750200000000001 0.60803 0.67956 0.61897 0.67961 0.63039 L 0.8310000000000001 0.66214 L 0.9697600000000001 0.52421 L 0.9697600000000001 0.5216299999999999 z M 0.64172 0.38374 L 0.50554 0.32582 C 0.49599 0.34044 0.47948999999999997 0.34902 0.46204 0.34845 L 0.45375 0.34845 L 0.34107 0.52251 L 0.6421399999999999 0.392 L 0.6421399999999999 0.39242 C 0.6419199999999999 0.39011 0.6419199999999999 0.38778 0.6421399999999999 0.38545999999999997 C 0.64225 0.38486 0.6420999999999999 0.38423999999999997 0.64172 0.38375 z M 0.80703 0.68827 L 0.67389 0.66085 C 0.66889 0.66725 0.66227 0.6722 0.65472 0.67518 L 0.62301 0.87186 L 0.8079 0.68868 C 0.8079 0.68868 0.80748 0.68951 0.80702 0.68951 z M 0.6208 0.67477 C 0.60804 0.66954 0.59851 0.65856 0.59513 0.64518 L 0.34719000000000005 0.59426 L 0.34369000000000005 0.59993 L 0.5686300000000001 0.92537 L 0.5820900000000001 0.9118700000000001 L 0.6203800000000002 0.6756000000000001 C 0.6203800000000002 0.6756000000000001 0.6216700000000002 0.6765200000000001 0.6208000000000001 0.6760600000000001 z M 0.35241 0.56426 L 0.59735 0.6147199999999999 C 0.6045 0.6022399999999999 0.6173500000000001 0.5941 0.6316900000000001 0.5929699999999999 L 0.6582300000000001 0.4307099999999999 L 0.6526000000000001 0.4259199999999999 L 0.34807000000000005 0.5564299999999999 C 0.34967000000000004 0.5589499999999998 0.35111000000000003 0.5615699999999999 0.35240000000000005 0.5642599999999999 z M 0.24973 0.60514 L 0.24452000000000002 0.59993 L 0.13880000000000003 0.64343 L 0.19014000000000003 0.6943499999999999 L 0.24844000000000002 0.6038399999999999 z M 0.31932 0.62168 C 0.31196 0.6250600000000001 0.30396 0.6268400000000001 0.29586 0.6268900000000001 C 0.28948 0.62692 0.28315 0.6258900000000001 0.27711 0.62385 L 0.21277000000000001 0.7174 L 0.49467 0.9966700000000001 L 0.54426 0.9475 z M 0.27973 0.51163 C 0.28408 0.5112300000000001 0.28846 0.5112300000000001 0.29280999999999996 0.51163 C 0.29756999999999995 0.51103 0.30238999999999994 0.51103 0.30713999999999997 0.51163 L 0.42111 0.33453 C 0.41220999999999997 0.32531 0.40721999999999997 0.31301 0.40719 0.30019 C 0.40678 0.29644000000000004 0.40678 0.29265 0.40719 0.2889 L 0.26883999999999997 0.22493999999999997 L 0.15749999999999997 0.33327999999999997 z M 0.29236 0.20318 L 0.42725 0.2606 C 0.43702 0.25256 0.4494 0.24838 0.46204 0.24885 C 0.46765 0.24889999999999998 0.47323 0.24977999999999997 0.47858 0.25148 L 0.58384 0.08700999999999998 L 0.49683 -2.7755575615628914e-17 L 0.29235 0.20055999999999996 C 0.29235 0.20055999999999996 0.29193 0.20272999999999997 0.29235 0.20318999999999995 z M 0.24194 0.54338 C 0.24464999999999998 0.53832 0.24800999999999998 0.53364 0.25194 0.5294599999999999 L 0.1366 0.35719999999999996 L 0 0.48988 L 0.24185 0.54338 z M 0.23102 0.57255 L 0.022210000000000008 0.52896 L 0.11401000000000001 0.62209 L 0.22973000000000002 0.57292 z" stroke-linecap="round" />
</g>
</svg>