<?xml version="1.0" encoding="UTF-8" standalone="no" ?>
<!DOCTYPE svg PUBLIC "-//W3C//DTD SVG 1.1//EN" "http://www.w3.org/Graphics/SVG/1.1/DTD/svg11.dtd">
<svg xmlns="http://www.w3.org/2000/svg" xmlns:xlink="http://www.w3.org/1999/xlink" version="1.1" width="640" height="640" viewBox="0 0 640 640" xml:space="preserve">
<desc>Created with Fabric.js 4.6.0</desc>
<defs>
</defs>
<g transform="matrix(1 0 0 1 510 633.88)" id="xHpcxw0dL_-Q5R0rWkQr5"  >
<path style="stroke: none; stroke-width: 1; stroke-dasharray: none; stroke-linecap: butt; stroke-dashoffset: 0; stroke-linejoin: miter; stroke-miterlimit: 4; fill: rgb(0,0,0); fill-rule: nonzero; opacity: 1;" vector-effect="non-scaling-stroke"  transform=" translate(-0.5, -0.5)" d="M 0.50265 0 C 0.48935000000000006 0 0.47563000000000005 0.00042 0.46149000000000007 0.00125 C 0.43405000000000005 0.0029100000000000003 0.4049500000000001 0.00749 0.37418000000000007 0.014969999999999999 C 0.34508000000000005 0.022449999999999998 0.3201300000000001 0.03077 0.29934000000000005 0.03992 C 0.26774000000000003 0.05406 0.23573000000000005 0.07235 0.20330000000000004 0.0948 C 0.16671000000000002 0.12057999999999999 0.13428000000000004 0.15176 0.10601000000000003 0.18834 C 0.07774000000000003 0.22493000000000002 0.05487000000000004 0.26484 0.03741000000000004 0.30808 L 0.03117000000000004 0.32305 C 0.02369000000000004 0.34134 0.018700000000000043 0.35506 0.01620000000000004 0.36421000000000003 C 0.005390000000000041 0.40163000000000004 -0.00000999999999995796 0.44237000000000004 -0.00000999999999995796 0.48644000000000004 C -0.00000999999999995796 0.52718 0.003730000000000042 0.5658500000000001 0.011220000000000042 0.6024400000000001 C 0.029510000000000043 0.6855900000000001 0.06361000000000004 0.75668 0.11350000000000005 0.8157200000000001 C 0.15674000000000005 0.8672700000000001 0.21453000000000005 0.9121800000000001 0.28687000000000007 0.95042 C 0.32678000000000007 0.97121 0.3723100000000001 0.98514 0.4234500000000001 0.9922000000000001 C 0.4745900000000001 0.9992700000000001 0.5263500000000001 0.9988500000000001 0.5787300000000001 0.9909500000000001 C 0.6311200000000001 0.9830500000000001 0.67893 0.9682900000000001 0.7221700000000001 0.9466700000000001 C 0.7970100000000001 0.9084200000000001 0.8602000000000001 0.8506300000000001 0.9117500000000001 0.7733000000000001 C 0.9375300000000001 0.7350500000000001 0.9574800000000001 0.6934800000000001 0.97162 0.6485700000000001 C 0.9874200000000001 0.5986800000000001 0.99532 0.5471300000000001 0.99532 0.49391000000000007 C 0.99532 0.4465100000000001 0.98659 0.39704000000000006 0.9691299999999999 0.3454900000000001 C 0.9549899999999999 0.3022500000000001 0.93587 0.26192000000000004 0.9117599999999999 0.22451000000000007 C 0.8693499999999998 0.15716000000000008 0.8161399999999999 0.10436000000000006 0.75211 0.06611000000000006 C 0.67894 0.02204000000000006 0.5957899999999999 0.000010000000000051634 0.5026599999999999 0.000010000000000051634 z M 0.46024 0.23698 L 0.52759 0.23698 C 0.54089 0.23698 0.55295 0.24093 0.56376 0.24883 C 0.57457 0.25673 0.5820500000000001 0.26692 0.58621 0.27938999999999997 L 0.7184200000000001 0.67851 C 0.7242400000000001 0.69514 0.7232000000000001 0.71115 0.7153 0.7265299999999999 C 0.7074 0.7419099999999998 0.69555 0.7520999999999999 0.6797500000000001 0.7570899999999999 C 0.6731 0.7587499999999999 0.6664500000000001 0.7595799999999999 0.6597900000000001 0.7595799999999999 C 0.6464900000000001 0.7595799999999999 0.63443 0.75584 0.6236200000000001 0.74835 C 0.6128100000000001 0.7408699999999999 0.60533 0.73047 0.6011700000000001 0.71717 L 0.5724800000000001 0.62612 L 0.42281000000000013 0.62612 L 0.39412000000000014 0.71717 C 0.38996000000000014 0.72964 0.38248000000000015 0.73983 0.3716700000000001 0.74773 C 0.3608600000000001 0.75563 0.3488000000000001 0.75958 0.33550000000000013 0.75958 C 0.32885000000000014 0.75958 0.3226100000000001 0.75875 0.3167900000000001 0.75709 C 0.30016000000000015 0.7521 0.28789000000000015 0.74212 0.28000000000000014 0.72716 C 0.2721000000000001 0.71219 0.2706500000000001 0.6963900000000001 0.27563000000000015 0.67976 L 0.4016000000000002 0.28064000000000006 C 0.4057600000000002 0.2673400000000001 0.41324000000000016 0.25673000000000007 0.4240500000000002 0.24883000000000005 C 0.4348600000000002 0.24093000000000006 0.4469200000000002 0.23698000000000005 0.4602200000000002 0.23698000000000005 z" stroke-linecap="round" />
</g>
</svg>