<?xml version="1.0" encoding="UTF-8" standalone="no" ?>
<!DOCTYPE svg PUBLIC "-//W3C//DTD SVG 1.1//EN" "http://www.w3.org/Graphics/SVG/1.1/DTD/svg11.dtd">
<svg xmlns="http://www.w3.org/2000/svg" xmlns:xlink="http://www.w3.org/1999/xlink" version="1.1" width="640" height="640" viewBox="0 0 640 640" xml:space="preserve">
<desc>Created with Fabric.js 4.6.0</desc>
<defs>
</defs>
<g transform="matrix(1 0 0 1 15 15)" id="bBV6iZY9bRrFV9cQipJ-q"  >
<path style="stroke: none; stroke-width: 1; stroke-dasharray: none; stroke-linecap: butt; stroke-dashoffset: 0; stroke-linejoin: miter; stroke-miterlimit: 4; fill: rgb(0,0,0); fill-rule: nonzero; opacity: 1;" vector-effect="non-scaling-stroke"  transform=" translate(-0.5, -0.45)" d="M 0.31999 0 C 0.29453 0 0.27092 0.0057 0.25 0.01774 C 0.18463000000000002 0.05548 0.15975 0.14746 0.17293999999999998 0.26195999999999997 C 0.06720999999999998 0.30779999999999996 0.000009999999999982245 0.37528999999999996 0.000009999999999982245 0.45075999999999994 C 0.000009999999999982245 0.52623 0.06720999999999998 0.59373 0.17295 0.6395599999999999 C 0.15977 0.75406 0.18464999999999998 0.8460399999999999 0.25001 0.8837799999999999 C 0.27088 0.89582 0.2945 0.9015199999999999 0.32 0.9015199999999999 C 0.37428 0.9015199999999999 0.437 0.8742799999999998 0.5000100000000001 0.8275399999999998 C 0.5630200000000001 0.8742699999999999 0.6258300000000001 0.9015199999999999 0.6801100000000001 0.9015199999999999 C 0.7055700000000001 0.9015199999999999 0.7291800000000002 0.8958199999999998 0.7500900000000001 0.8837799999999999 C 0.8154600000000002 0.8460399999999999 0.8403400000000001 0.75406 0.8271600000000001 0.6395599999999999 C 0.9328500000000002 0.5937199999999999 1.00001 0.5262099999999998 1.00001 0.45075999999999994 C 1.00001 0.37528999999999996 0.93281 0.30779999999999996 0.8270700000000001 0.26195999999999997 C 0.84025 0.14745999999999998 0.81537 0.055479999999999974 0.7500100000000001 0.017739999999999978 C 0.7291400000000001 0.005649999999999978 0.7055300000000001 -2.0816681711721685e-17 0.68003 -2.0816681711721685e-17 C 0.62576 -2.0816681711721685e-17 0.5630200000000001 0.02723999999999998 0.5000100000000001 0.07397999999999999 C 0.43700000000000006 0.027239999999999993 0.37426000000000004 -1.3877787807814457e-17 0.31999000000000005 -1.3877787807814457e-17 z M 0.31999 0.07292 C 0.35256 0.07292 0.39563 0.09024 0.44238 0.12232 C 0.41489 0.14826 0.38795999999999997 0.17776999999999998 0.36206 0.21062 C 0.32005 0.21665 0.28043 0.22543 0.24373 0.23642 C 0.24353 0.23388 0.24307 0.23121 0.24291000000000001 0.22869 C 0.23845000000000002 0.15452 0.25474 0.09924 0.28645000000000004 0.0809 C 0.29583000000000004 0.07548 0.30677000000000004 0.07292 0.31998000000000004 0.07292 z M 0.68002 0.07292 C 0.6931799999999999 0.07292 0.7041799999999999 0.07548 0.7135499999999999 0.0809 C 0.7452599999999999 0.09919 0.76155 0.15452 0.7570899999999999 0.22868 C 0.75694 0.23119 0.75647 0.23385999999999998 0.7562699999999999 0.23640999999999998 C 0.7195499999999999 0.22540999999999997 0.6799 0.21663999999999997 0.6378599999999999 0.21061 C 0.6119599999999998 0.17776 0.5851099999999999 0.14826 0.5576199999999999 0.12230999999999999 C 0.6043699999999999 0.09022999999999999 0.6474599999999999 0.07290999999999999 0.6800199999999998 0.07290999999999999 z M 0.5 0.16862 C 0.5113 0.1789 0.52251 0.18975999999999998 0.53385 0.20166 C 0.52261 0.20128000000000001 0.51143 0.20076 0.49999000000000005 0.20076 C 0.48859 0.20076 0.47743 0.20128 0.46622 0.20166 C 0.47755000000000003 0.18978 0.48871000000000003 0.17889 0.5 0.16862 z M 0.5 0.27368 C 0.53453 0.27368 0.56725 0.27560999999999997 0.5983 0.27897 C 0.61724 0.30471 0.6359 0.33192 0.6534000000000001 0.36222 C 0.67017 0.39126 0.685 0.42099 0.69808 0.45076 C 0.68499 0.48055 0.67018 0.51033 0.6534 0.53939 C 0.63596 0.5696 0.61735 0.5966400000000001 0.59847 0.62232 C 0.5663199999999999 0.62584 0.5333399999999999 0.62785 0.49999999999999994 0.62785 C 0.46546999999999994 0.62785 0.43273999999999996 0.62592 0.40168999999999994 0.62256 C 0.38275999999999993 0.59682 0.3640899999999999 0.56969 0.34658999999999995 0.53939 C 0.32980999999999994 0.5103300000000001 0.31499999999999995 0.48056000000000004 0.30190999999999996 0.45076000000000005 C 0.31498999999999994 0.42099000000000003 0.32981999999999995 0.39126000000000005 0.34658999999999995 0.36222000000000004 C 0.36402999999999996 0.33201 0.38264 0.30489000000000005 0.40151999999999993 0.27921000000000007 C 0.43366999999999994 0.27569000000000005 0.4666499999999999 0.2736700000000001 0.49998999999999993 0.2736700000000001 z M 0.69776 0.29623 C 0.7142900000000001 0.30022 0.73019 0.30452999999999997 0.74512 0.30933 C 0.74174 0.32463 0.73759 0.34021 0.73291 0.35596 C 0.7275499999999999 0.3459 0.7223499999999999 0.3358 0.7165499999999999 0.32577 C 0.7105899999999999 0.31545 0.7039699999999999 0.30617 0.6977499999999999 0.29623 z M 0.30217 0.29631 C 0.29597 0.30622 0.2894 0.31548000000000004 0.28346 0.32577 C 0.27767 0.33581 0.27247 0.3459 0.2671 0.35596 C 0.2624 0.34018 0.2582 0.32457 0.25481 0.30925 C 0.27002 0.30444000000000004 0.28587999999999997 0.30019 0.30217 0.29631 z M 0.1862 0.33602 C 0.19498000000000001 0.37309 0.20715 0.41151 0.22282000000000002 0.45069 C 0.20719 0.48977 0.19506 0.52813 0.18628 0.56511 C 0.11372 0.53007 0.07292 0.48645 0.07292 0.45077 C 0.07292 0.41414 0.11258 0.3724 0.17904 0.3392 C 0.18131 0.33807 0.18388000000000002 0.33714 0.1862 0.33603 z M 0.81372 0.33643 C 0.88628 0.37147 0.92708 0.41509 0.92708 0.45077 C 0.92708 0.4874 0.88742 0.5291399999999999 0.82096 0.5623400000000001 C 0.81869 0.56347 0.8161200000000001 0.5644 0.8138000000000001 0.56552 C 0.8050100000000001 0.5284300000000001 0.7929300000000001 0.48997 0.7772600000000001 0.45078 C 0.7928700000000001 0.41174 0.8049400000000001 0.3734 0.8137200000000001 0.33644 z M 0.5 0.36743 C 0.45396000000000003 0.36743 0.41667 0.40471999999999997 0.41667 0.45077 C 0.41667 0.49681 0.45396 0.53411 0.50001 0.53411 C 0.5460499999999999 0.53411 0.5833499999999999 0.49682 0.5833499999999999 0.45077999999999996 C 0.5833499999999999 0.40474 0.5460599999999999 0.36744 0.50001 0.36744 z M 0.26709 0.54558 C 0.27246 0.5556399999999999 0.27773 0.56573 0.28353 0.57577 C 0.28948 0.58609 0.29604 0.59538 0.30224 0.60531 C 0.28571 0.60132 0.26982 0.59701 0.25488 0.59221 C 0.25827 0.5769 0.2624 0.5613400000000001 0.26709 0.5455800000000001 z M 0.73291 0.54566 C 0.7375999999999999 0.56143 0.7418199999999999 0.57698 0.7452 0.59229 C 0.72999 0.59709 0.7141299999999999 0.6013499999999999 0.69784 0.6052299999999999 C 0.70403 0.59532 0.71061 0.5860599999999999 0.71656 0.5757699999999999 C 0.72234 0.5657499999999999 0.7275699999999999 0.5556999999999999 0.73292 0.5456599999999999 z M 0.24374 0.66512 C 0.28046000000000004 0.67612 0.3201 0.6849000000000001 0.36215 0.6909200000000001 C 0.38806 0.7237800000000001 0.41488 0.7533500000000001 0.44239000000000006 0.7793000000000001 C 0.39564000000000005 0.8113700000000001 0.3525600000000001 0.8287000000000001 0.31999000000000005 0.8287000000000001 C 0.30683000000000005 0.8287000000000001 0.29584000000000005 0.8260600000000001 0.28646000000000005 0.8206400000000001 C 0.25475000000000003 0.8023500000000001 0.23846000000000006 0.7471000000000001 0.24292000000000005 0.6729400000000001 C 0.24307000000000006 0.6704000000000001 0.24353000000000005 0.6677000000000001 0.24374000000000004 0.66512 z M 0.75627 0.66512 C 0.75647 0.66769 0.75693 0.67039 0.75709 0.6729400000000001 C 0.7615500000000001 0.74711 0.74526 0.8023100000000001 0.71355 0.82064 C 0.70417 0.8260500000000001 0.69323 0.8287 0.6800200000000001 0.8287 C 0.64746 0.8287 0.60438 0.81138 0.5576200000000001 0.7793 C 0.5851300000000001 0.75335 0.6120300000000001 0.72379 0.6379400000000002 0.69092 C 0.6799600000000001 0.6849 0.7195700000000002 0.6761199999999999 0.7562700000000002 0.6651199999999999 z M 0.46615 0.69987 C 0.47739 0.70025 0.48857 0.7007599999999999 0.5000100000000001 0.7007599999999999 C 0.5114400000000001 0.7007599999999999 0.52263 0.70024 0.5338600000000001 0.69987 C 0.5225100000000001 0.71176 0.5113000000000001 0.72263 0.5000000000000001 0.73291 C 0.4887100000000001 0.72263 0.47749000000000014 0.7117699999999999 0.4661500000000001 0.69987 z" stroke-linecap="round" />
</g>
</svg>